HIERARCHY
ROOT Hips
{
	OFFSET 0.000000 0.000000 0.000000
	CHANNELS 6 Xposition Yposition Zposition Xrotation Yrotation Zrotation
	JOINT LeftUpLeg_virtual
	{
		OFFSET 0.000000 0.000000 0.000000
		CHANNELS 3 Xrotation Yrotation Zrotation
		JOINT LeftUpLeg
		{
			OFFSET 11.394100 -6.187798 -0.413800
			CHANNELS 3 Xrotation Yrotation Zrotation
			JOINT LeftLeg
			{
				OFFSET 0.430247 -32.302673 3.732800
				CHANNELS 3 Xrotation Yrotation Zrotation
				JOINT LeftFoot
				{
					OFFSET -0.430247 -48.264931 -6.423300
					CHANNELS 3 Xrotation Yrotation Zrotation
					JOINT LeftToeBase
					{
						OFFSET 4.230900 -16.068199 23.438400
						CHANNELS 3 Xrotation Yrotation Zrotation
						JOINT LeftToe_End
						{
							OFFSET 4.510700 0.695400 19.974600
							CHANNELS 3 Xrotation Yrotation Zrotation
							End Site
							{
								OFFSET 0 0 0
							}
						}
					}
				}
			}
		}
	}
	JOINT RightUpLeg_virtual
	{
		OFFSET 0.000000 0.000000 0.000000
		CHANNELS 3 Xrotation Yrotation Zrotation
		JOINT RightUpLeg
		{
			OFFSET -11.333700 -6.187798 -0.413800
			CHANNELS 3 Xrotation Yrotation Zrotation
			JOINT RightLeg
			{
				OFFSET -0.430392 -32.302628 3.733000
				CHANNELS 3 Xrotation Yrotation Zrotation
				JOINT RightFoot
				{
					OFFSET 0.430392 -48.264973 -6.423500
					CHANNELS 3 Xrotation Yrotation Zrotation
					JOINT RightToeBase
					{
						OFFSET -4.230900 -16.068199 23.438400
						CHANNELS 3 Xrotation Yrotation Zrotation
						JOINT RightToe_End
						{
							OFFSET -4.510700 0.695400 19.974600
							CHANNELS 3 Xrotation Yrotation Zrotation
							End Site
							{
								OFFSET 0 0 0
							}
						}
					}
				}
			}
		}
	}
	JOINT Spine_virtual
	{
		OFFSET 0.000000 0.000000 0.000000
		CHANNELS 3 Xrotation Yrotation Zrotation
		JOINT Spine
		{
			OFFSET -0.002400 12.777504 0.315300
			CHANNELS 3 Xrotation Yrotation Zrotation
			JOINT Spine1
			{
				OFFSET -0.002067 5.816869 0.032633
				CHANNELS 3 Xrotation Yrotation Zrotation
				JOINT Spine1_split
				{
					OFFSET -0.002067 5.816869 0.032633
					CHANNELS 3 Xrotation Yrotation Zrotation
					JOINT Spine2
					{
						OFFSET -0.002067 5.816869 0.032633
						CHANNELS 3 Xrotation Yrotation Zrotation
						JOINT Neck_virtual
						{
							OFFSET 0.000000 0.000000 0.000000
							CHANNELS 3 Xrotation Yrotation Zrotation
							JOINT Neck
							{
								OFFSET -0.003700 21.199493 -0.826900
								CHANNELS 3 Xrotation Yrotation Zrotation
								JOINT Head
								{
									OFFSET 0.000000 20.442200 4.834800
									CHANNELS 3 Xrotation Yrotation Zrotation
									JOINT HeadTop_End
									{
										OFFSET 0.000000 34.668396 4.968400
										CHANNELS 3 Xrotation Yrotation Zrotation
										End Site
										{
											OFFSET 0 0 0
										}
									}
								}
							}
						}
						JOINT LeftShoulder_virtual
						{
							OFFSET 0.000000 0.000000 0.000000
							CHANNELS 3 Xrotation Yrotation Zrotation
							JOINT LeftShoulder
							{
								OFFSET 3.288150 8.794197 -1.372250
								CHANNELS 3 Xrotation Yrotation Zrotation
								JOINT LeftShoulder_split
								{
									OFFSET 3.288150 8.794197 -1.372250
									CHANNELS 3 Xrotation Yrotation Zrotation
									JOINT LeftArm
									{
										OFFSET 11.953299 -2.279007 -0.146200
										CHANNELS 3 Xrotation Yrotation Zrotation
										JOINT LeftForeArm
										{
											OFFSET 18.448900 0.000000 0.000000
											CHANNELS 3 Xrotation Yrotation Zrotation
											JOINT LeftHand
											{
												OFFSET 29.527798 0.000000 0.000000
												CHANNELS 3 Xrotation Yrotation Zrotation
												End Site
												{
													OFFSET 0 0 0
												}
											}
										}
									}
								}
							}
						}
						JOINT RightShoulder_virtual
						{
							OFFSET 0.000000 0.000000 0.000000
							CHANNELS 3 Xrotation Yrotation Zrotation
							JOINT RightShoulder
							{
								OFFSET -3.249400 8.794197 -1.372250
								CHANNELS 3 Xrotation Yrotation Zrotation
								JOINT RightShoulder_split
								{
									OFFSET -3.249400 8.794197 -1.372250
									CHANNELS 3 Xrotation Yrotation Zrotation
									JOINT RightArm
									{
										OFFSET -11.953299 -2.279007 -0.146200
										CHANNELS 3 Xrotation Yrotation Zrotation
										JOINT RightForeArm
										{
											OFFSET -18.448900 0.000000 0.000000
											CHANNELS 3 Xrotation Yrotation Zrotation
											JOINT RightHand
											{
												OFFSET -29.527802 0.000000 0.000000
												CHANNELS 3 Xrotation Yrotation Zrotation
												End Site
												{
													OFFSET 0 0 0
												}
											}
										}
									}
								}
							}
						}
					}
				}
			}
		}
	}
}
MOTION
Frames: 6
Frame Time: 0.03333333
-237.035431 100.937553 -11.377758 0.000000 0.000000 0.000000 -0.249662 -1.912851 0.222041 -12.738680 15.320765 10.389179 13.830611 -9.797986 -0.109692 -4.262494 -11.337164 -7.007205 1.635544 0.000000 -0.000001 0.000000 0.000000 0.000000 -0.249662 -1.912851 0.222041 -7.094992 -8.671548 -9.134763 15.184371 -0.231734 3.437242 -8.264899 -2.316662 4.334672 -0.140963 0.000002 0.000001 0.000000 0.000000 0.000000 -0.249662 -1.912851 0.222041 1.359052 0.270647 0.433185 1.526172 0.604860 0.276834 0.000000 0.000000 0.000000 0.000000 0.000000 0.000000 1.528456 0.599782 0.275481 2.397565 -0.807861 -0.311582 -5.722447 -4.753666 1.062652 0.000000 0.000000 0.000000 1.528456 0.599782 0.275481 0.680080 -3.439145 -11.860527 0.000000 0.000000 0.000000 7.201836 -16.916700 -65.380251 0.000002 -20.680368 -0.000017 0.000000 0.000000 0.000000 1.528456 0.599782 0.275481 0.475740 8.188371 13.746941 0.000000 0.000000 0.000000 13.305190 7.816369 61.653317 -0.000007 31.239059 0.000021 0.000000 0.000000 0.000000 
-236.988724 100.890648 -11.354866 0.000000 0.000000 0.000000 -0.173607 -1.920129 0.236246 -12.933523 15.303636 10.389910 14.073918 -9.802403 -0.154684 -4.416275 -11.311878 -6.811299 1.731775 -0.000006 0.000001 0.000000 0.000000 0.000000 -0.173607 -1.920129 0.236246 -7.295377 -8.727729 -9.228368 15.344563 -0.110630 3.460835 -8.243050 -2.322923 4.351218 -0.157719 0.000001 0.000000 0.000000 0.000000 0.000000 -0.173607 -1.920129 0.236246 1.375671 0.286738 0.433344 1.534144 0.618928 0.275135 0.000000 0.000000 0.000000 0.000000 0.000000 0.000000 1.536388 0.613600 0.273539 2.245560 -0.804275 -0.383274 -6.001869 -4.864042 1.193530 0.000000 0.000000 0.000000 1.536388 0.613600 0.273539 0.674980 -2.709238 -11.957100 0.000000 0.000000 0.000000 6.658607 -17.652585 -64.530056 0.000001 -22.655389 0.000017 0.000000 0.000000 0.000000 1.536388 0.613600 0.273539 0.480196 7.824796 13.908640 0.000000 0.000000 0.000000 13.803053 8.765850 60.021264 0.000008 33.727443 -0.000015 0.000000 0.000000 0.000000 
-236.914124 100.879898 -11.375690 0.000000 0.000000 0.000000 -0.089904 -1.972225 0.264755 -13.076003 15.285038 10.344088 14.219539 -9.802547 -0.190820 -4.552765 -11.223470 -6.696963 1.695362 0.000004 -0.000000 0.000000 0.000000 0.000000 -0.089904 -1.972225 0.264755 -7.489180 -8.727544 -9.302801 15.454357 -0.023190 3.427740 -8.294466 -2.338724 4.400004 -0.180892 0.000002 0.000000 0.000000 0.000000 0.000000 -0.089904 -1.972225 0.264755 1.392857 0.327716 0.432051 1.546219 0.684569 0.271725 0.000000 0.000000 0.000000 0.000000 0.000000 0.000000 1.548310 0.680139 0.273104 2.096727 -0.783602 -0.438585 -6.737987 -4.857628 1.284561 0.000000 0.000000 0.000000 1.548310 0.680139 0.273104 0.693741 -1.794103 -11.392939 0.000000 0.000000 0.000000 6.723549 -17.114374 -63.661154 -0.000004 -28.975158 0.000006 0.000000 0.000000 0.000000 1.548310 0.680139 0.273104 0.524892 7.233768 13.397726 0.000000 0.000000 0.000000 14.296290 9.848244 58.493979 -0.000016 38.634528 0.000031 0.000000 0.000000 0.000000 
-236.813339 100.948067 -11.477692 0.000000 0.000000 0.000000 -0.065029 -2.027774 0.314319 -13.001934 15.228547 10.184174 14.053088 -9.792405 -0.176970 -4.475651 -11.080919 -6.817779 1.676317 0.000002 0.000001 0.000000 0.000000 0.000000 -0.065029 -2.027774 0.314319 -7.527177 -8.723151 -9.348501 15.352413 0.052549 3.346169 -8.400783 -2.356391 4.456908 -0.112300 -0.000002 0.000001 0.000000 0.000000 0.000000 -0.065029 -2.027774 0.314319 1.381488 0.381655 0.434167 1.552735 0.816360 0.263448 0.000000 0.000000 0.000000 0.000000 0.000000 0.000000 1.554471 0.814353 0.264976 2.136420 -0.746275 -0.424607 -7.795953 -4.720162 1.455542 0.000000 0.000000 0.000000 1.554471 0.814353 0.264976 0.727397 -0.777316 -10.172333 0.000000 0.000000 0.000000 7.163288 -15.478766 -63.252531 0.000000 -39.799413 -0.000027 0.000000 0.000000 0.000000 1.554471 0.814353 0.264976 0.589089 6.841263 12.253695 0.000000 0.000000 0.000000 15.175152 10.404254 56.827048 -0.000008 47.078319 0.000011 0.000000 0.000000 0.000000 
-236.695496 101.042946 -11.691292 0.000000 0.000000 0.000000 0.093710 -2.051623 0.369899 -13.111287 15.029500 9.980364 13.849708 -9.776403 -0.145600 -4.314659 -10.871899 -7.047678 1.803770 0.000003 0.000003 0.000000 0.000000 0.000000 0.093710 -2.051623 0.369899 -7.751839 -8.703754 -9.361230 15.206267 0.080765 3.216960 -8.447995 -2.342609 4.533941 0.073969 0.000009 0.000001 0.000000 0.000000 0.000000 0.093710 -2.051623 0.369899 1.248505 0.489506 0.477774 1.474142 1.049105 0.244177 0.000000 0.000000 0.000000 0.000000 0.000000 0.000000 1.474960 1.050315 0.238231 2.356075 -0.713907 -0.381636 -8.927366 -4.662900 1.825292 0.000000 0.000000 0.000000 1.474960 1.050315 0.238231 0.742790 0.410772 -8.702621 0.000000 0.000000 0.000000 6.708957 -13.853795 -63.740063 0.000018 -52.254547 0.000022 0.000000 0.000000 0.000000 1.474960 1.050315 0.238231 0.650622 6.657734 10.923946 0.000000 0.000000 0.000000 15.612971 9.985258 55.028013 -0.000016 57.559657 0.000012 0.000000 0.000000 0.000000 
-236.565384 101.067116 -12.023296 0.000000 0.000000 0.000000 0.574821 -1.869337 0.419263 -13.943006 14.572149 9.803647 14.132998 -9.762179 -0.114476 -4.391909 -10.693109 -7.125173 2.050124 -0.000003 0.000001 0.000000 0.000000 0.000000 0.574821 -1.869337 0.419263 -8.577690 -8.627656 -9.388502 15.443287 -0.049287 3.075112 -8.556016 -2.365569 4.617184 0.245154 -0.000005 -0.000001 0.000000 0.000000 0.000000 0.574821 -1.869337 0.419263 1.019456 0.576698 0.581435 1.325837 1.258944 0.226371 0.000000 0.000000 0.000000 0.000000 0.000000 0.000000 1.325621 1.262211 0.202448 2.633765 -0.702111 -0.390766 -9.968016 -4.831650 2.305953 0.000000 0.000000 0.000000 1.325621 1.262211 0.202448 0.709523 1.596733 -7.520505 0.000000 0.000000 0.000000 4.034819 -13.354439 -64.635214 0.000009 -62.074357 -0.000009 0.000000 0.000000 0.000000 1.325621 1.262211 0.202448 0.701466 6.393125 9.593140 0.000000 0.000000 0.000000 14.403885 8.966721 53.653742 -0.000031 67.534609 0.000012 0.000000 0.000000 0.000000 
